<svg width="227" height="41" viewBox="0 0 227 41" fill="none" xmlns="http://www.w3.org/2000/svg">
<path d="M11.5156 10.8125H10.0391V0.335938H11.5156V10.8125ZM13.5547 6.07031H11.0625V4.84375H13.5547V6.07031ZM8.86719 3.15625H0.53125V1.96875H8.86719V3.15625ZM4.70312 3.83594C5.36979 3.83594 5.95833 3.94531 6.46875 4.16406C6.98438 4.38281 7.38542 4.69271 7.67188 5.09375C7.95833 5.49479 8.10156 5.95833 8.10156 6.48438C8.10156 7.00521 7.95833 7.46354 7.67188 7.85938C7.38542 8.25 6.98438 8.55469 6.46875 8.77344C5.95833 8.99219 5.36979 9.10156 4.70312 9.10156C4.03646 9.10156 3.44271 8.99219 2.92188 8.77344C2.40625 8.55469 2.00521 8.25 1.71875 7.85938C1.4375 7.46354 1.29688 7.00521 1.29688 6.48438C1.29688 5.95833 1.4375 5.49479 1.71875 5.09375C2.00521 4.69271 2.40625 4.38281 2.92188 4.16406C3.44271 3.94531 4.03646 3.83594 4.70312 3.83594ZM4.70312 4.99219C4.3125 4.99219 3.96615 5.05208 3.66406 5.17188C3.36198 5.28646 3.13021 5.45833 2.96875 5.6875C2.80729 5.91667 2.72656 6.18229 2.72656 6.48438C2.72656 6.78646 2.80729 7.04688 2.96875 7.26562C3.13021 7.48438 3.36198 7.65365 3.66406 7.77344C3.96615 7.88802 4.3125 7.94531 4.70312 7.94531C5.09375 7.94531 5.4401 7.88802 5.74219 7.77344C6.04948 7.65365 6.28646 7.48438 6.45312 7.26562C6.61979 7.04688 6.70312 6.78646 6.70312 6.48438C6.70312 6.18229 6.61979 5.91667 6.45312 5.6875C6.28646 5.45833 6.04948 5.28646 5.74219 5.17188C5.4401 5.05208 5.09375 4.99219 4.70312 4.99219ZM5.44531 2.57031H3.96875V0.328125H5.44531V2.57031ZM12.1094 14.0469H2.64844V12.8203H12.1094V14.0469ZM4.11719 13.3281H2.64844V9.99219H4.11719V13.3281ZM25 2.17969H15.9453V0.992188H25V2.17969ZM27.1562 7.125H14.3438V5.92188H27.1562V7.125ZM21.4609 9.96094H19.9844V6.74219H21.4609V9.96094ZM25.5312 2.02344C25.5312 2.84115 25.5052 3.58333 25.4531 4.25C25.401 4.91667 25.276 5.67448 25.0781 6.52344L23.625 6.35156C23.7552 5.76823 23.8516 5.22396 23.9141 4.71875C23.9766 4.20833 24.0156 3.76562 24.0312 3.39062C24.0469 3.01042 24.0547 2.55469 24.0547 2.02344V0.992188H25.5312V2.02344ZM25.6016 14.3203H24.1094V10.7109H15.6562V9.50781H25.6016V14.3203ZM31.9688 1.375C32.6562 1.375 33.2656 1.57812 33.7969 1.98438C34.3333 2.39062 34.7526 2.96354 35.0547 3.70312C35.3568 4.44271 35.5078 5.30469 35.5078 6.28906C35.5078 7.27865 35.3568 8.14323 35.0547 8.88281C34.7526 9.6224 34.3333 10.1953 33.7969 10.6016C33.2656 11.0026 32.6562 11.2031 31.9688 11.2031C31.2812 11.2031 30.6667 11.0026 30.125 10.6016C29.5885 10.2005 29.1693 9.63021 28.8672 8.89062C28.5651 8.14583 28.4141 7.27865 28.4141 6.28906C28.4141 5.30469 28.5651 4.44271 28.8672 3.70312C29.1693 2.96354 29.5885 2.39062 30.125 1.98438C30.6667 1.57812 31.2812 1.375 31.9688 1.375ZM31.9688 2.70312C31.5521 2.70312 31.1797 2.84896 30.8516 3.14062C30.5234 3.43229 30.2708 3.84896 30.0938 4.39062C29.9219 4.92708 29.8359 5.5599 29.8359 6.28906C29.8359 7.01302 29.9219 7.64583 30.0938 8.1875C30.2708 8.72917 30.5234 9.14583 30.8516 9.4375C31.1797 9.72396 31.5521 9.86719 31.9688 9.86719C32.3854 9.86719 32.7578 9.72396 33.0859 9.4375C33.4141 9.14583 33.6667 8.72917 33.8438 8.1875C34.0208 7.64583 34.1094 7.01302 34.1094 6.28906C34.1094 5.5599 34.0182 4.92708 33.8359 4.39062C33.6589 3.84896 33.4089 3.43229 33.0859 3.14062C32.7682 2.84896 32.3958 2.70312 31.9688 2.70312ZM39.8516 14.3594H38.375V0.320312H39.8516V14.3594ZM39.0234 6.78906H35.0391V5.57812H39.0234V6.78906ZM52.2266 9.13281C53.2422 9.13281 54.1198 9.23438 54.8594 9.4375C55.599 9.63542 56.1693 9.92969 56.5703 10.3203C56.9714 10.7109 57.1719 11.1797 57.1719 11.7266C57.1719 12.2578 56.9714 12.7161 56.5703 13.1016C56.1693 13.487 55.5964 13.7839 54.8516 13.9922C54.1068 14.2005 53.2318 14.3047 52.2266 14.3047C51.2266 14.3047 50.3568 14.2005 49.6172 13.9922C48.8776 13.7839 48.3073 13.487 47.9062 13.1016C47.5052 12.7161 47.3047 12.2578 47.3047 11.7266C47.3047 11.1849 47.5052 10.7188 47.9062 10.3281C48.3073 9.93229 48.8776 9.63542 49.6172 9.4375C50.3568 9.23438 51.2266 9.13281 52.2266 9.13281ZM52.2266 10.25C51.5234 10.25 50.9115 10.3099 50.3906 10.4297C49.8698 10.5443 49.4688 10.7135 49.1875 10.9375C48.9115 11.1562 48.7734 11.4193 48.7734 11.7266C48.7734 12.0182 48.9115 12.2734 49.1875 12.4922C49.4688 12.7057 49.8698 12.8698 50.3906 12.9844C50.9115 13.0938 51.5234 13.1484 52.2266 13.1484C52.9401 13.1484 53.5547 13.0938 54.0703 12.9844C54.5911 12.8698 54.9922 12.7031 55.2734 12.4844C55.5547 12.2656 55.6953 12.013 55.6953 11.7266C55.6953 11.4193 55.5547 11.1562 55.2734 10.9375C54.9922 10.7135 54.5911 10.5443 54.0703 10.4297C53.5547 10.3099 52.9401 10.25 52.2266 10.25ZM56.4453 2.20312H47.4141V1.01562H56.4453V2.20312ZM58.6562 7.96875H45.9297V6.76562H58.6562V7.96875ZM52.4922 7.11719H51.0312V4.14062H52.4922V7.11719ZM57.0781 2.17969C57.0781 2.9401 57.0547 3.59115 57.0078 4.13281C56.9661 4.66927 56.8568 5.26302 56.6797 5.91406L55.2266 5.75C55.3932 5.10417 55.4948 4.52865 55.5312 4.02344C55.5729 3.51823 55.5964 2.90365 55.6016 2.17969V1.01562H57.0781V2.17969ZM72.5312 9.74219H59.7188V8.55469H72.5312V9.74219ZM66.8203 14.3203H65.3594V9.10156H66.8203V14.3203ZM62.7812 2.71875H69.4375V0.890625H70.9297V6.97656H61.3125V0.890625H62.7812V2.71875ZM69.4375 5.77344V3.90625H62.7812V5.77344H69.4375ZM74.8203 16.2344H73.5L74.3281 11.9219H76.0859L74.8203 16.2344ZM7.36719 28.3125C7.36719 29.2917 7.10417 30.2109 6.57812 31.0703C6.05729 31.9245 5.36198 32.6484 4.49219 33.2422C3.6224 33.8359 2.67188 34.2474 1.64062 34.4766L0.976562 33.2344C1.86719 33.0573 2.70312 32.724 3.48438 32.2344C4.26562 31.7448 4.89062 31.1536 5.35938 30.4609C5.82812 29.7682 6.0625 29.0521 6.0625 28.3125V27.2656H7.36719V28.3125ZM7.625 28.3125C7.625 29.0469 7.86198 29.763 8.33594 30.4609C8.8099 31.1589 9.4401 31.7552 10.2266 32.25C11.013 32.7396 11.849 33.0677 12.7344 33.2344L12.0703 34.4766C11.0495 34.2474 10.1042 33.8385 9.23438 33.25C8.36458 32.6615 7.66667 31.9375 7.14062 31.0781C6.61458 30.2188 6.35156 29.2969 6.35156 28.3125V27.2656H7.625V28.3125ZM13.3281 38.4844H0.515625V37.2578H13.3281V38.4844ZM25.9844 40.3203H24.4844V26.3203H25.9844V40.3203ZM22.6641 28.9844H14.6875V27.7734H22.6641V28.9844ZM14.3281 35.7031C15.9688 35.7031 17.5495 35.6745 19.0703 35.6172C20.5911 35.5547 22.013 35.4453 23.3359 35.2891L23.4219 36.3984C22.0781 36.612 20.6849 36.7552 19.2422 36.8281C17.7995 36.8958 16.2109 36.9349 14.4766 36.9453L14.3281 35.7031ZM17.5938 36.0234H16.1562V28.6875H17.5938V36.0234ZM21.1953 36.0234H19.7422V28.6875H21.1953V36.0234ZM31.9688 27.375C32.6562 27.375 33.2656 27.5781 33.7969 27.9844C34.3333 28.3906 34.7526 28.9635 35.0547 29.7031C35.3568 30.4427 35.5078 31.3047 35.5078 32.2891C35.5078 33.2786 35.3568 34.1432 35.0547 34.8828C34.7526 35.6224 34.3333 36.1953 33.7969 36.6016C33.2656 37.0026 32.6562 37.2031 31.9688 37.2031C31.2812 37.2031 30.6667 37.0026 30.125 36.6016C29.5885 36.2005 29.1693 35.6302 28.8672 34.8906C28.5651 34.1458 28.4141 33.2786 28.4141 32.2891C28.4141 31.3047 28.5651 30.4427 28.8672 29.7031C29.1693 28.9635 29.5885 28.3906 30.125 27.9844C30.6667 27.5781 31.2812 27.375 31.9688 27.375ZM31.9688 28.7031C31.5521 28.7031 31.1797 28.849 30.8516 29.1406C30.5234 29.4323 30.2708 29.849 30.0938 30.3906C29.9219 30.9271 29.8359 31.5599 29.8359 32.2891C29.8359 33.013 29.9219 33.6458 30.0938 34.1875C30.2708 34.7292 30.5234 35.1458 30.8516 35.4375C31.1797 35.724 31.5521 35.8672 31.9688 35.8672C32.3854 35.8672 32.7578 35.724 33.0859 35.4375C33.4141 35.1458 33.6667 34.7292 33.8438 34.1875C34.0208 33.6458 34.1094 33.013 34.1094 32.2891C34.1094 31.5599 34.0182 30.9271 33.8359 30.3906C33.6589 29.849 33.4089 29.4323 33.0859 29.1406C32.7682 28.849 32.3958 28.7031 31.9688 28.7031ZM39.8516 40.3594H38.375V26.3203H39.8516V40.3594ZM39.0234 32.7891H35.0391V31.5781H39.0234V32.7891ZM54.8125 38.6484H42V37.4219H54.8125V38.6484ZM49.1016 37.9453H47.6484V34.5312H49.1016V37.9453ZM53.2422 31.6875H45.0391V34.375H43.5625V30.5H51.7812V28.5312H43.5391V27.3203H53.2422V31.6875ZM53.5703 34.9531H43.5625V33.7344H53.5703V34.9531ZM64.5 38.3125H63.0078V34.9375H64.5V38.3125ZM69.1953 38.3125H67.7344V34.9375H69.1953V38.3125ZM71.8672 29.5156H60.3359V28.3125H71.8672V29.5156ZM72.5469 38.7891H59.7344V37.5781H72.5469V38.7891ZM66.1094 30.3203C67.0625 30.3203 67.8906 30.4245 68.5938 30.6328C69.2969 30.8359 69.8333 31.138 70.2031 31.5391C70.5781 31.9349 70.7656 32.4115 70.7656 32.9688C70.7656 33.5208 70.5781 33.9948 70.2031 34.3906C69.8333 34.7812 69.2969 35.0833 68.5938 35.2969C67.8958 35.5104 67.0677 35.6172 66.1094 35.6172C65.151 35.6172 64.3203 35.513 63.6172 35.3047C62.9193 35.0911 62.3828 34.7865 62.0078 34.3906C61.6328 33.9948 61.4453 33.5208 61.4453 32.9688C61.4453 32.4115 61.6328 31.9349 62.0078 31.5391C62.3828 31.138 62.9193 30.8359 63.6172 30.6328C64.3203 30.4245 65.151 30.3203 66.1094 30.3203ZM66.1094 31.4766C65.4479 31.4766 64.8802 31.5339 64.4062 31.6484C63.9323 31.763 63.5703 31.9323 63.3203 32.1562C63.0755 32.3802 62.9531 32.651 62.9531 32.9688C62.9531 33.2812 63.0755 33.5495 63.3203 33.7734C63.5703 33.9974 63.9323 34.1667 64.4062 34.2812C64.8802 34.3958 65.4479 34.4531 66.1094 34.4531C66.7604 34.4531 67.3229 34.3958 67.7969 34.2812C68.2708 34.1667 68.6302 33.9974 68.875 33.7734C69.125 33.5495 69.25 33.2812 69.25 32.9688C69.25 32.651 69.125 32.3802 68.875 32.1562C68.6302 31.9323 68.2708 31.763 67.7969 31.6484C67.3229 31.5339 66.7604 31.4766 66.1094 31.4766ZM66.8359 29.0469H65.375V26.5312H66.8359V29.0469ZM78.4062 35.2109H76.9531V32.5859H78.4062V35.2109ZM82.8906 35.2109H81.4141V32.5859H82.8906V35.2109ZM79.9453 26.4766C80.9974 26.4766 81.8958 26.5703 82.6406 26.7578C83.3854 26.9453 83.9531 27.2214 84.3438 27.5859C84.7396 27.9453 84.9375 28.3802 84.9375 28.8906C84.9375 29.4062 84.7396 29.8438 84.3438 30.2031C83.9531 30.5625 83.3854 30.8359 82.6406 31.0234C81.8958 31.2109 80.9974 31.3099 79.9453 31.3203C78.8932 31.3099 77.9922 31.2109 77.2422 31.0234C76.4974 30.8359 75.9245 30.5625 75.5234 30.2031C75.1276 29.8438 74.9297 29.4062 74.9297 28.8906C74.9297 28.3802 75.1276 27.9453 75.5234 27.5859C75.9245 27.2214 76.4974 26.9453 77.2422 26.7578C77.9922 26.5703 78.8932 26.4766 79.9453 26.4766ZM79.9453 27.5938C79.1953 27.5938 78.5625 27.6458 78.0469 27.75C77.5365 27.8542 77.1484 28 76.8828 28.1875C76.6172 28.375 76.4844 28.6094 76.4844 28.8906C76.4844 29.1771 76.6146 29.4167 76.875 29.6094C77.1354 29.8021 77.5234 29.9479 78.0391 30.0469C78.5547 30.1458 79.1901 30.2005 79.9453 30.2109C80.7005 30.2005 81.3359 30.1458 81.8516 30.0469C82.3672 29.9479 82.7552 29.8021 83.0156 29.6094C83.2812 29.4167 83.4141 29.1771 83.4141 28.8906C83.4141 28.6094 83.2812 28.375 83.0156 28.1875C82.75 28 82.3594 27.8542 81.8438 27.75C81.3281 27.6458 80.6953 27.5938 79.9453 27.5938ZM86.3281 33.2656H73.5625V32.0781H86.3281V33.2656ZM84.7109 37.7969H76.5703V39.3516H75.1094V36.7266H83.2578V35.625H75.0859V34.5156H84.7109V37.7969ZM85.1172 40.1875H75.1094V39.0391H85.1172V40.1875ZM92.1172 28.8281C92.1172 29.6771 91.9557 30.4818 91.6328 31.2422C91.3151 32.0026 90.8594 32.6667 90.2656 33.2344C89.6719 33.7969 88.9766 34.2188 88.1797 34.5L87.4062 33.3281C88.1094 33.0781 88.724 32.724 89.25 32.2656C89.7812 31.8021 90.1875 31.2708 90.4688 30.6719C90.7552 30.0729 90.8984 29.4583 90.8984 28.8281V27.7344H92.1172V28.8281ZM92.3984 28.8125C92.3984 29.401 92.5339 29.974 92.8047 30.5312C93.0755 31.0833 93.4661 31.5781 93.9766 32.0156C94.487 32.4479 95.0859 32.7839 95.7734 33.0234L95.0156 34.1875C94.2292 33.9115 93.5495 33.5052 92.9766 32.9688C92.4036 32.4323 91.9635 31.8047 91.6562 31.0859C91.349 30.362 91.1953 29.6042 91.1953 28.8125V27.7344H92.3984V28.8125ZM98.0078 31.1172H94.9922V29.8906H98.0078V31.1172ZM95.4141 28.4297H87.8516V27.2344H95.4141V28.4297ZM99.0625 40.3203H97.5781V36.6094H89.5781V35.3984H99.0625V40.3203ZM99.0625 34.6953H97.5781V26.3203H99.0625V34.6953ZM112.82 40.3594H111.328V26.3203H112.82V40.3594ZM105.32 27.375C106.018 27.375 106.641 27.5781 107.188 27.9844C107.734 28.3906 108.161 28.9635 108.469 29.7031C108.776 30.4427 108.93 31.3047 108.93 32.2891C108.93 33.2786 108.776 34.1432 108.469 34.8828C108.161 35.6224 107.734 36.1953 107.188 36.6016C106.641 37.0026 106.018 37.2031 105.32 37.2031C104.622 37.2031 103.997 37.0026 103.445 36.6016C102.898 36.1953 102.471 35.6224 102.164 34.8828C101.857 34.1432 101.703 33.2786 101.703 32.2891C101.703 31.3047 101.857 30.4427 102.164 29.7031C102.471 28.9635 102.898 28.3906 103.445 27.9844C103.997 27.5781 104.622 27.375 105.32 27.375ZM105.32 28.7031C104.893 28.7031 104.513 28.849 104.18 29.1406C103.846 29.4323 103.589 29.849 103.406 30.3906C103.229 30.9271 103.141 31.5599 103.141 32.2891C103.141 33.013 103.229 33.6458 103.406 34.1875C103.589 34.7292 103.846 35.1458 104.18 35.4375C104.513 35.724 104.893 35.8672 105.32 35.8672C105.747 35.8672 106.125 35.724 106.453 35.4375C106.786 35.1458 107.044 34.7292 107.227 34.1875C107.409 33.6458 107.5 33.013 107.5 32.2891C107.5 31.5599 107.409 30.9271 107.227 30.3906C107.044 29.849 106.789 29.4323 106.461 29.1406C106.133 28.849 105.753 28.7031 105.32 28.7031ZM125.445 28.875H116.391V27.6719H125.445V28.875ZM127.812 38.4297H115.047V37.2109H127.812V38.4297ZM121.367 37.8438H119.906V32.2734H121.367V37.8438ZM126.375 29.0469C126.375 29.875 126.365 30.5703 126.344 31.1328C126.323 31.6901 126.276 32.3516 126.203 33.1172C126.13 33.8776 126.013 34.7005 125.852 35.5859L124.344 35.4219C124.516 34.5833 124.641 33.7917 124.719 33.0469C124.797 32.3021 124.844 31.6432 124.859 31.0703C124.88 30.4922 124.891 29.8177 124.891 29.0469V27.6719H126.375V29.0469ZM137.82 34.7031H136.352V32.8438H137.82V34.7031ZM143.805 35.7656H142.312V26.3359H143.805V35.7656ZM145.797 31.7266H143.219V30.5H145.797V31.7266ZM132.688 34.2109C133.786 34.2109 134.799 34.2031 135.727 34.1875C136.659 34.1719 137.635 34.1328 138.656 34.0703C139.677 34.0026 140.63 33.9089 141.516 33.7891L141.641 34.8359C140.318 35.0651 138.953 35.2161 137.547 35.2891C136.146 35.3568 134.581 35.3906 132.852 35.3906L132.688 34.2109ZM143.805 40.3203H142.312V37.5859H134.422V36.4141H143.805V40.3203ZM141.117 28.6328H133.039V27.5312H141.117V28.6328ZM137.07 29.1016C137.742 29.1016 138.328 29.1849 138.828 29.3516C139.328 29.5182 139.716 29.7578 139.992 30.0703C140.273 30.3776 140.414 30.7448 140.414 31.1719C140.414 31.5885 140.273 31.9557 139.992 32.2734C139.716 32.5911 139.328 32.8359 138.828 33.0078C138.328 33.1797 137.742 33.2656 137.07 33.2656C136.409 33.2656 135.826 33.1797 135.32 33.0078C134.82 32.8359 134.432 32.5911 134.156 32.2734C133.88 31.9557 133.742 31.5885 133.742 31.1719C133.742 30.7448 133.88 30.3776 134.156 30.0703C134.432 29.7578 134.82 29.5182 135.32 29.3516C135.826 29.1849 136.409 29.1016 137.07 29.1016ZM137.07 30.125C136.68 30.1146 136.341 30.151 136.055 30.2344C135.768 30.3177 135.547 30.4375 135.391 30.5938C135.234 30.75 135.156 30.9427 135.156 31.1719C135.156 31.3854 135.234 31.5755 135.391 31.7422C135.547 31.9036 135.768 32.0286 136.055 32.1172C136.341 32.2005 136.68 32.2422 137.07 32.2422C137.471 32.2422 137.812 32.2005 138.094 32.1172C138.38 32.0286 138.602 31.9036 138.758 31.7422C138.914 31.5755 138.992 31.3854 138.992 31.1719C138.992 30.9427 138.914 30.75 138.758 30.5938C138.602 30.4375 138.38 30.3177 138.094 30.2344C137.812 30.151 137.471 30.1146 137.07 30.125ZM137.82 28.0781H136.352V26.2109H137.82V28.0781ZM158.203 33.5234H156.742V26.3203H158.203V33.5234ZM158.219 37.7031H150.508V39.4844H149.055V36.5703H156.75V35.3672H149.023V34.1953H158.219V37.7031ZM158.688 40.1875H149.055V39H158.688V40.1875ZM151.422 27.7656C151.422 28.6302 151.258 29.4427 150.93 30.2031C150.602 30.9635 150.135 31.625 149.531 32.1875C148.927 32.75 148.219 33.1693 147.406 33.4453L146.648 32.2734C147.372 32.0286 148 31.6797 148.531 31.2266C149.062 30.7682 149.471 30.2396 149.758 29.6406C150.044 29.0365 150.188 28.4115 150.188 27.7656V26.6953H151.422V27.7656ZM151.711 27.7656C151.711 28.3958 151.849 28.9948 152.125 29.5625C152.406 30.1302 152.81 30.6276 153.336 31.0547C153.862 31.4818 154.479 31.8099 155.188 32.0391L154.461 33.1875C153.654 32.9167 152.948 32.5156 152.344 31.9844C151.745 31.4531 151.281 30.8255 150.953 30.1016C150.625 29.3776 150.461 28.599 150.461 27.7656V26.6953H151.711V27.7656ZM171.344 40.3203H169.875V26.3203H171.344V40.3203ZM173.602 33.2266H171.008V32H173.602V33.2266ZM168.656 29.7266H160.359V28.5156H168.656V29.7266ZM164.57 30.7656C165.237 30.7656 165.833 30.9036 166.359 31.1797C166.891 31.4557 167.305 31.8411 167.602 32.3359C167.904 32.8307 168.055 33.3906 168.055 34.0156C168.055 34.6458 167.904 35.2083 167.602 35.7031C167.305 36.1979 166.891 36.5833 166.359 36.8594C165.833 37.1354 165.237 37.2734 164.57 37.2734C163.898 37.2734 163.299 37.1354 162.773 36.8594C162.247 36.5833 161.833 36.1979 161.531 35.7031C161.234 35.2083 161.086 34.6458 161.086 34.0156C161.086 33.3906 161.234 32.8307 161.531 32.3359C161.833 31.8411 162.247 31.4557 162.773 31.1797C163.299 30.9036 163.898 30.7656 164.57 30.7656ZM164.57 31.9922C164.174 31.9922 163.82 32.0781 163.508 32.25C163.195 32.4167 162.948 32.6536 162.766 32.9609C162.589 33.2682 162.5 33.6198 162.5 34.0156C162.5 34.4167 162.589 34.7682 162.766 35.0703C162.948 35.3724 163.195 35.6094 163.508 35.7812C163.82 35.9479 164.174 36.0312 164.57 36.0312C164.966 36.0312 165.32 35.9479 165.633 35.7812C165.945 35.6094 166.19 35.3724 166.367 35.0703C166.544 34.7682 166.633 34.4167 166.633 34.0156C166.633 33.6198 166.544 33.2682 166.367 32.9609C166.19 32.6536 165.945 32.4167 165.633 32.25C165.32 32.0781 164.966 31.9922 164.57 31.9922ZM165.297 29.0312H163.82V26.5078H165.297V29.0312ZM186.297 40.3203H184.891V26.3203H186.297V40.3203ZM182.305 33.1484H178.891V31.9531H182.305V33.1484ZM183.344 39.6484H181.938V26.6797H183.344V39.6484ZM180.336 28.0703C180.336 29.3672 180.159 30.5781 179.805 31.7031C179.456 32.8229 178.891 33.8594 178.109 34.8125C177.328 35.7656 176.315 36.6068 175.07 37.3359L174.219 36.2734C175.302 35.6328 176.19 34.9115 176.883 34.1094C177.576 33.3021 178.086 32.4219 178.414 31.4688C178.742 30.5104 178.906 29.4714 178.906 28.3516V28.0703H180.336ZM179.43 29.2812H174.875V28.0703H179.43V29.2812ZM202.906 40.3203H201.438V26.3203H202.906V40.3203ZM205.164 33.2266H202.57V32H205.164V33.2266ZM200.219 29.7266H191.922V28.5156H200.219V29.7266ZM196.133 30.7656C196.799 30.7656 197.396 30.9036 197.922 31.1797C198.453 31.4557 198.867 31.8411 199.164 32.3359C199.466 32.8307 199.617 33.3906 199.617 34.0156C199.617 34.6458 199.466 35.2083 199.164 35.7031C198.867 36.1979 198.453 36.5833 197.922 36.8594C197.396 37.1354 196.799 37.2734 196.133 37.2734C195.461 37.2734 194.862 37.1354 194.336 36.8594C193.81 36.5833 193.396 36.1979 193.094 35.7031C192.797 35.2083 192.648 34.6458 192.648 34.0156C192.648 33.3906 192.797 32.8307 193.094 32.3359C193.396 31.8411 193.81 31.4557 194.336 31.1797C194.862 30.9036 195.461 30.7656 196.133 30.7656ZM196.133 31.9922C195.737 31.9922 195.383 32.0781 195.07 32.25C194.758 32.4167 194.51 32.6536 194.328 32.9609C194.151 33.2682 194.062 33.6198 194.062 34.0156C194.062 34.4167 194.151 34.7682 194.328 35.0703C194.51 35.3724 194.758 35.6094 195.07 35.7812C195.383 35.9479 195.737 36.0312 196.133 36.0312C196.529 36.0312 196.883 35.9479 197.195 35.7812C197.508 35.6094 197.753 35.3724 197.93 35.0703C198.107 34.7682 198.195 34.4167 198.195 34.0156C198.195 33.6198 198.107 33.2682 197.93 32.9609C197.753 32.6536 197.508 32.4167 197.195 32.25C196.883 32.0781 196.529 31.9922 196.133 31.9922ZM196.859 29.0312H195.383V26.5078H196.859V29.0312ZM210.414 30.4531C210.414 31.4427 210.242 32.4219 209.898 33.3906C209.56 34.3542 209.089 35.2109 208.484 35.9609C207.88 36.7109 207.203 37.2734 206.453 37.6484L205.562 36.4844C206.26 36.1458 206.888 35.6536 207.445 35.0078C208.003 34.3568 208.44 33.6328 208.758 32.8359C209.081 32.0339 209.242 31.2396 209.242 30.4531V28.375H210.414V30.4531ZM210.711 30.4531C210.711 31.1927 210.859 31.9375 211.156 32.6875C211.458 33.4323 211.88 34.112 212.422 34.7266C212.969 35.3411 213.589 35.8099 214.281 36.1328L213.445 37.2969C212.685 36.9375 212.008 36.401 211.414 35.6875C210.82 34.9688 210.357 34.1536 210.023 33.2422C209.695 32.3255 209.531 31.3958 209.531 30.4531V28.375H210.711V30.4531ZM213.75 28.9609H206.086V27.7422H213.75V28.9609ZM216.734 40.3203H215.258V26.3203H216.734V40.3203ZM218.992 33.1328H216.398V31.8828H218.992V33.1328ZM226 35.75H224.461L224.312 27.6875H226.141L226 35.75ZM225.227 39.1094C225.034 39.1094 224.852 39.0573 224.68 38.9531C224.508 38.849 224.372 38.7135 224.273 38.5469C224.174 38.375 224.125 38.1901 224.125 37.9922C224.125 37.7995 224.174 37.6172 224.273 37.4453C224.372 37.2734 224.508 37.1406 224.68 37.0469C224.852 36.9479 225.034 36.8984 225.227 36.8984C225.424 36.8984 225.607 36.9479 225.773 37.0469C225.945 37.1406 226.081 37.2734 226.18 37.4453C226.284 37.6172 226.336 37.7995 226.336 37.9922C226.336 38.1901 226.284 38.375 226.18 38.5469C226.081 38.7135 225.945 38.849 225.773 38.9531C225.607 39.0573 225.424 39.1094 225.227 39.1094Z" fill="#5B5B5B"/>
</svg>
