<svg width="185" height="182" viewBox="0 0 185 182" fill="none" xmlns="http://www.w3.org/2000/svg">
<path d="M20.12 36.476C13.4613 36.476 7.59467 35.772 2.52 34.364C1.816 34.188 1.288 33.8653 0.936 33.396C0.584 32.9267 0.408 32.4133 0.408 31.856C0.408 31.1813 0.642667 30.5947 1.112 30.096C1.58133 29.568 2.18267 29.304 2.916 29.304C3.18 29.304 3.444 29.348 3.708 29.436C8.66533 30.7267 14.136 31.372 20.12 31.372C26.104 31.372 31.5747 30.7267 36.532 29.436C36.708 29.3773 36.972 29.348 37.324 29.348C38.0573 29.348 38.6587 29.5973 39.128 30.096C39.5973 30.5947 39.832 31.1813 39.832 31.856C39.832 32.4133 39.656 32.9267 39.304 33.396C38.952 33.8653 38.424 34.188 37.72 34.364C32.6453 35.772 26.7787 36.476 20.12 36.476ZM4.544 20.064C4.544 19.4187 4.73467 18.876 5.116 18.436C5.49733 17.9667 6.01067 17.6 6.656 17.336C10.44 15.84 13.476 13.1853 15.764 9.372C16.3213 8.46267 16.688 7.612 16.864 6.82C17.0693 6.028 17.172 5.192 17.172 4.312V2.904C17.172 2.05333 17.48 1.408 18.096 0.967998C18.712 0.498665 19.3867 0.263999 20.12 0.263999C20.8533 0.263999 21.528 0.498665 22.144 0.967998C22.76 1.408 23.068 2.05333 23.068 2.904V4.312C23.068 5.192 23.156 6.028 23.332 6.82C23.5373 7.612 23.9187 8.46267 24.476 9.372C26.764 13.1853 29.8 15.84 33.584 17.336C34.2293 17.6 34.7427 17.9667 35.124 18.436C35.5053 18.876 35.696 19.4187 35.696 20.064C35.696 20.7973 35.4613 21.3693 34.992 21.78C34.552 22.1907 33.9653 22.4107 33.232 22.44C32.4693 22.4987 31.868 22.44 31.428 22.264C29.1107 21.472 27.0867 20.3133 25.356 18.788C23.6547 17.2333 21.9093 15.224 20.12 12.76C18.36 15.1947 16.6 17.1893 14.84 18.744C13.08 20.2987 11.0267 21.472 8.68 22.264C8.26933 22.3813 7.844 22.44 7.404 22.44C6.55333 22.44 5.864 22.2347 5.336 21.824C4.808 21.4133 4.544 20.8267 4.544 20.064ZM30.768 70.396C30.768 69.5453 31.076 68.8853 31.692 68.416C32.308 67.9467 32.9827 67.712 33.716 67.712C34.4493 67.712 35.124 67.9467 35.74 68.416C36.356 68.8853 36.664 69.5453 36.664 70.396V108.808C36.664 109.659 36.356 110.319 35.74 110.788C35.124 111.257 34.4493 111.492 33.716 111.492C32.9827 111.492 32.308 111.257 31.692 110.788C31.076 110.319 30.768 109.659 30.768 108.808V70.396ZM1.024 96.576C1.024 95.784 1.27333 95.168 1.772 94.728C2.27067 94.288 2.916 94.068 3.708 94.068C3.94267 94.068 4.13333 94.0827 4.28 94.112C4.60267 94.1707 5.05733 94.2293 5.644 94.288V75.72H3.664C2.872 75.72 2.256 75.5 1.816 75.06C1.40533 74.5907 1.2 73.9747 1.2 73.212C1.2 72.4493 1.40533 71.848 1.816 71.408C2.256 70.9387 2.872 70.704 3.664 70.704H24.52C25.312 70.704 25.9133 70.9387 26.324 71.408C26.764 71.848 26.984 72.4493 26.984 73.212C26.984 73.9747 26.764 74.5907 26.324 75.06C25.9133 75.5 25.312 75.72 24.52 75.72H22.54V93.804C23.4493 93.628 24.1387 93.4813 24.608 93.364C25.0773 93.2467 25.4587 93.188 25.752 93.188C26.456 93.188 27.028 93.408 27.468 93.848C27.9373 94.288 28.172 94.9187 28.172 95.74C28.172 96.3267 27.9667 96.84 27.556 97.28C27.1453 97.6907 26.6173 97.984 25.972 98.16C24.3293 98.6587 22.364 99.0253 20.076 99.26C17.788 99.4947 15.456 99.612 13.08 99.612C10.616 99.612 8.65067 99.5827 7.184 99.524C5.74667 99.436 4.412 99.2893 3.18 99.084C1.74267 98.7907 1.024 97.9547 1.024 96.576ZM13.212 94.596C14.3853 94.596 15.5587 94.552 16.732 94.464V75.72H11.452V94.596H13.212ZM18.844 155.092C18.844 152.951 18.5947 151.132 18.096 149.636C17.5973 148.14 16.9227 147.025 16.072 146.292C15.2507 145.529 14.3267 145.148 13.3 145.148C12.2733 145.148 11.3347 145.529 10.484 146.292C9.66267 147.025 9.00267 148.14 8.504 149.636C8.00533 151.132 7.756 152.951 7.756 155.092C7.756 157.263 8.00533 159.096 8.504 160.592C9.00267 162.088 9.66267 163.217 10.484 163.98C11.3347 164.713 12.2733 165.08 13.3 165.08C14.3267 165.08 15.2507 164.713 16.072 163.98C16.9227 163.217 17.5973 162.088 18.096 160.592C18.5947 159.096 18.844 157.263 18.844 155.092ZM1.86 155.092C1.86 152.012 2.35867 149.343 3.356 147.084C4.35333 144.825 5.71733 143.109 7.448 141.936C9.17867 140.763 11.1293 140.176 13.3 140.176C15.236 140.176 17.0107 140.66 18.624 141.628C20.2373 142.596 21.572 144.004 22.628 145.852C23.684 147.671 24.344 149.871 24.608 152.452H30.768V140.396C30.768 139.545 31.076 138.885 31.692 138.416C32.308 137.947 32.9827 137.712 33.716 137.712C34.4493 137.712 35.124 137.947 35.74 138.416C36.356 138.885 36.664 139.545 36.664 140.396V178.808C36.664 179.659 36.356 180.319 35.74 180.788C35.124 181.257 34.4493 181.492 33.716 181.492C32.9827 181.492 32.308 181.257 31.692 180.788C31.076 180.319 30.768 179.659 30.768 178.808V157.556H24.608C24.344 160.167 23.684 162.411 22.628 164.288C21.6013 166.165 20.2813 167.603 18.668 168.6C17.0547 169.597 15.2653 170.096 13.3 170.096C11.1293 170.096 9.17867 169.509 7.448 168.336C5.71733 167.133 4.35333 165.403 3.356 163.144C2.35867 160.856 1.86 158.172 1.86 155.092Z" fill="#FFB762"/>
<path d="M68.5566 8.95312C68.5566 11.1562 67.9648 13.2246 66.7812 15.1582C65.6094 17.0801 64.0449 18.709 62.0879 20.0449C60.1309 21.3809 57.9922 22.3066 55.6719 22.8223L54.1777 20.0273C56.1816 19.6289 58.0625 18.8789 59.8203 17.7773C61.5781 16.6758 62.9844 15.3457 64.0391 13.7871C65.0938 12.2285 65.6211 10.6172 65.6211 8.95312V6.59766H68.5566V8.95312ZM69.1367 8.95312C69.1367 10.6055 69.6699 12.2168 70.7363 13.7871C71.8027 15.3574 73.2207 16.6992 74.9902 17.8125C76.7598 18.9141 78.6406 19.6523 80.6328 20.0273L79.1387 22.8223C76.8418 22.3066 74.7148 21.3867 72.7578 20.0625C70.8008 18.7383 69.2305 17.1094 68.0469 15.1758C66.8633 13.2422 66.2715 11.168 66.2715 8.95312V6.59766H69.1367V8.95312ZM81.9688 31.8398H53.1406V29.0801H81.9688V31.8398ZM113.082 32.209H84.2539V29.4492H113.082V32.209ZM100.232 30.627H96.9629V22.9453H100.232V30.627ZM109.549 16.5469H91.0918V22.5938H87.7695V13.875H106.262V9.44531H87.7168V6.7207H109.549V16.5469ZM110.287 23.8945H87.7695V21.1523H110.287V23.8945ZM139.713 12.3984H124.086V9.70898H139.713V12.3984ZM131.926 14.2793C133.25 14.2793 134.428 14.5898 135.459 15.2109C136.502 15.8203 137.316 16.6758 137.902 17.7773C138.488 18.8789 138.781 20.1387 138.781 21.5566C138.781 22.9629 138.488 24.2227 137.902 25.3359C137.316 26.4375 136.502 27.3047 135.459 27.9375C134.428 28.5703 133.25 28.8867 131.926 28.8867C130.613 28.8867 129.436 28.5703 128.393 27.9375C127.361 27.3047 126.553 26.4316 125.967 25.3184C125.393 24.2051 125.105 22.9512 125.105 21.5566C125.105 20.1621 125.393 18.9082 125.967 17.7949C126.553 16.6816 127.361 15.8203 128.393 15.2109C129.436 14.5898 130.613 14.2793 131.926 14.2793ZM131.926 17.0742C131.188 17.0742 130.52 17.2676 129.922 17.6543C129.336 18.0293 128.879 18.5566 128.551 19.2363C128.223 19.9043 128.059 20.6777 128.059 21.5566C128.059 22.4238 128.223 23.1973 128.551 23.877C128.891 24.5566 129.354 25.0781 129.939 25.4414C130.525 25.8047 131.188 25.9863 131.926 25.9863C132.676 25.9863 133.344 25.8047 133.93 25.4414C134.527 25.0781 134.996 24.5566 135.336 23.877C135.676 23.1973 135.846 22.4238 135.846 21.5566C135.846 20.6777 135.676 19.9043 135.336 19.2363C134.996 18.5566 134.527 18.0293 133.93 17.6543C133.344 17.2676 132.676 17.0742 131.926 17.0742ZM151.121 35.9707H147.939V4.4707H151.121V35.9707ZM148.994 20.3262H143.229V17.6016H148.994V20.3262ZM144.318 34.4941H141.172V5.20898H144.318V34.4941ZM133.596 11.3789H130.291V5.40234H133.596V11.3789ZM165.465 29.8887H162.178V20.6602H165.465V29.8887ZM177.207 29.8887H173.85V20.6602H177.207V29.8887ZM184.098 32.0508H155.27V29.291H184.098V32.0508ZM169.631 6.29883C171.881 6.29883 173.885 6.64453 175.643 7.33594C177.4 8.01562 178.771 8.98242 179.756 10.2363C180.752 11.4785 181.25 12.9082 181.25 14.5254C181.25 16.1543 180.752 17.5898 179.756 18.832C178.771 20.0625 177.4 21.0234 175.643 21.7148C173.885 22.3945 171.881 22.7344 169.631 22.7344C167.393 22.7344 165.389 22.3945 163.619 21.7148C161.861 21.0234 160.484 20.0625 159.488 18.832C158.492 17.5898 157.994 16.1543 157.994 14.5254C157.994 12.9082 158.492 11.4785 159.488 10.2363C160.484 8.98242 161.861 8.01562 163.619 7.33594C165.389 6.64453 167.393 6.29883 169.631 6.29883ZM169.631 9.00586C167.99 8.99414 166.537 9.2168 165.271 9.67383C164.018 10.1191 163.033 10.7637 162.318 11.6074C161.615 12.4395 161.264 13.4121 161.264 14.5254C161.264 15.6387 161.615 16.6172 162.318 17.4609C163.033 18.3047 164.023 18.9609 165.289 19.4297C166.555 19.8984 168.002 20.1328 169.631 20.1328C171.248 20.1328 172.689 19.8984 173.955 19.4297C175.221 18.9609 176.211 18.3047 176.926 17.4609C177.641 16.6172 177.998 15.6387 177.998 14.5254C177.998 13.4121 177.641 12.4395 176.926 11.6074C176.223 10.7637 175.238 10.1191 173.973 9.67383C172.707 9.2168 171.26 8.99414 169.631 9.00586ZM77.6797 105.971H74.375V74.4707H77.6797V105.971ZM82.7598 90.0098H76.9238V87.25H82.7598V90.0098ZM71.6328 82.1348H52.9648V79.4102H71.6328V82.1348ZM62.4395 84.4727C63.9395 84.4727 65.2812 84.7832 66.4648 85.4043C67.6602 86.0254 68.5918 86.8926 69.2598 88.0059C69.9395 89.1191 70.2793 90.3789 70.2793 91.7852C70.2793 93.2031 69.9395 94.4688 69.2598 95.582C68.5918 96.6953 67.6602 97.5625 66.4648 98.1836C65.2812 98.8047 63.9395 99.1152 62.4395 99.1152C60.9277 99.1152 59.5801 98.8047 58.3965 98.1836C57.2129 97.5625 56.2812 96.6953 55.6016 95.582C54.9336 94.4688 54.5996 93.2031 54.5996 91.7852C54.5996 90.3789 54.9336 89.1191 55.6016 88.0059C56.2812 86.8926 57.2129 86.0254 58.3965 85.4043C59.5801 84.7832 60.9277 84.4727 62.4395 84.4727ZM62.4395 87.2324C61.5488 87.2324 60.752 87.4258 60.0488 87.8125C59.3457 88.1875 58.7891 88.7207 58.3789 89.4121C57.9805 90.1035 57.7812 90.8945 57.7812 91.7852C57.7812 92.6875 57.9805 93.4785 58.3789 94.1582C58.7891 94.8379 59.3457 95.3711 60.0488 95.7578C60.752 96.1328 61.5488 96.3203 62.4395 96.3203C63.3301 96.3203 64.127 96.1328 64.8301 95.7578C65.5332 95.3711 66.084 94.8379 66.4824 94.1582C66.8809 93.4785 67.0801 92.6875 67.0801 91.7852C67.0801 90.8945 66.8809 90.1035 66.4824 89.4121C66.084 88.7207 65.5332 88.1875 64.8301 87.8125C64.127 87.4258 63.3301 87.2324 62.4395 87.2324ZM64.0742 80.5703H60.752V74.8926H64.0742V80.5703ZM95.2051 83.7695C95.2051 86.0312 94.8125 88.2461 94.0273 90.4141C93.2422 92.5703 92.1641 94.4922 90.793 96.1797C89.4219 97.8555 87.8691 99.1152 86.1348 99.959L84.166 97.3398C85.7246 96.5898 87.1367 95.4941 88.4023 94.0527C89.668 92.5996 90.6582 90.9766 91.373 89.1836C92.0996 87.3789 92.4629 85.5742 92.4629 83.7695V79.0938H95.2051V83.7695ZM95.8379 83.7695C95.8379 85.5039 96.1895 87.2266 96.8926 88.9375C97.6074 90.6484 98.5977 92.1719 99.8633 93.5078C101.141 94.8438 102.576 95.8574 104.17 96.5488L102.324 99.168C100.543 98.3711 98.9551 97.1875 97.5605 95.6172C96.1777 94.0469 95.0996 92.2363 94.3262 90.1855C93.5645 88.1348 93.1836 85.9961 93.1836 83.7695V79.0938H95.8379V83.7695ZM103.045 80.4121H85.2734V77.6699H103.045V80.4121ZM110.357 105.971H107V74.4707H110.357V105.971ZM132.91 76.1758C134.48 76.1758 135.893 76.4863 137.146 77.1074C138.4 77.7285 139.385 78.5957 140.1 79.709C140.826 80.8223 141.189 82.0762 141.189 83.4707C141.189 84.8652 140.832 86.125 140.117 87.25C139.402 88.3633 138.412 89.2305 137.146 89.8516C135.893 90.4609 134.48 90.7773 132.91 90.8008C131.34 90.7773 129.922 90.4609 128.656 89.8516C127.402 89.2305 126.418 88.3633 125.703 87.25C124.988 86.125 124.631 84.8652 124.631 83.4707C124.631 82.0762 124.988 80.8223 125.703 79.709C126.43 78.5957 127.42 77.7285 128.674 77.1074C129.928 76.4863 131.34 76.1758 132.91 76.1758ZM132.91 78.9531C131.973 78.9531 131.117 79.1465 130.344 79.5332C129.57 79.9199 128.967 80.4531 128.533 81.1328C128.1 81.8125 127.883 82.5918 127.883 83.4707C127.883 84.3496 128.1 85.1348 128.533 85.8262C128.967 86.5176 129.57 87.0625 130.344 87.4609C131.117 87.8594 131.973 88.0586 132.91 88.0586C133.871 88.0586 134.727 87.8594 135.477 87.4609C136.238 87.0625 136.836 86.5176 137.27 85.8262C137.715 85.1348 137.938 84.3496 137.938 83.4707C137.938 82.5918 137.715 81.8125 137.27 81.1328C136.836 80.4531 136.238 79.9199 135.477 79.5332C134.727 79.1465 133.871 78.9531 132.91 78.9531ZM148.906 90.168H145.584V74.4707H148.906V90.168ZM153.494 84.1562H147.518V81.3965H153.494V84.1562ZM128.92 102.438C130.221 102.438 131.521 102.361 132.822 102.209C134.135 102.045 135.383 101.77 136.566 101.383L137.059 104.02C135.746 104.465 134.434 104.758 133.121 104.898C131.82 105.051 130.42 105.127 128.92 105.127H127.338V102.438H128.92ZM130.572 103.387H127.338V93.4551H130.572V103.387ZM151.859 96.0742H135.969V93.5605H151.859V96.0742ZM143.896 97.041C145.068 97.041 146.1 97.2227 146.99 97.5859C147.893 97.9492 148.596 98.4707 149.1 99.1504C149.615 99.8184 149.873 100.604 149.873 101.506C149.873 102.396 149.615 103.17 149.1 103.826C148.596 104.494 147.893 105.01 146.99 105.373C146.1 105.748 145.068 105.936 143.896 105.936C142.725 105.936 141.688 105.754 140.785 105.391C139.883 105.027 139.186 104.512 138.693 103.844C138.213 103.176 137.973 102.396 137.973 101.506C137.973 100.604 138.219 99.8184 138.711 99.1504C139.203 98.4707 139.895 97.9492 140.785 97.5859C141.688 97.2227 142.725 97.041 143.896 97.041ZM143.896 99.4141C143.334 99.4141 142.83 99.4961 142.385 99.6602C141.939 99.8242 141.582 100.07 141.312 100.398C141.055 100.727 140.926 101.096 140.926 101.506C140.926 101.916 141.055 102.285 141.312 102.613C141.582 102.93 141.939 103.17 142.385 103.334C142.83 103.51 143.334 103.598 143.896 103.598C144.482 103.598 144.998 103.51 145.443 103.334C145.889 103.17 146.234 102.93 146.48 102.613C146.727 102.285 146.85 101.916 146.85 101.506C146.85 101.096 146.727 100.727 146.48 100.398C146.234 100.07 145.889 99.8242 145.443 99.6602C144.998 99.4961 144.482 99.4141 143.896 99.4141ZM145.584 95.4941H142.314V90.9414H145.584V95.4941ZM178.666 80.2188H158.293V77.5117H178.666V80.2188ZM183.992 101.717H155.27V98.9746H183.992V101.717ZM169.49 100.398H166.203V87.8652H169.49V100.398ZM180.758 80.6055C180.758 82.4688 180.734 84.0332 180.688 85.2988C180.641 86.5527 180.535 88.041 180.371 89.7637C180.207 91.4746 179.943 93.3262 179.58 95.3184L176.188 94.9492C176.574 93.0625 176.855 91.2812 177.031 89.6055C177.207 87.9297 177.312 86.4473 177.348 85.1582C177.395 83.8574 177.418 82.3398 177.418 80.6055V77.5117H180.758V80.6055ZM79.4023 162.102H76.0625V144.506H79.4023V162.102ZM76.7832 151.098H70.1562V148.373H76.7832V151.098ZM56.7266 158.516C60.2656 158.492 62.8848 158.439 64.584 158.357C66.2832 158.275 68.0234 158.082 69.8047 157.777L70.0859 160.52C68.2578 160.824 66.4297 161.023 64.6016 161.117C62.7852 161.211 60.1602 161.264 56.7266 161.275H54.4414V158.516H56.7266ZM68.1523 154.666H57.7637V160.854H54.4414V152.117H64.8301V148.566H54.3887V145.842H68.1523V154.666ZM76.7832 157.232H70.1562V154.561H76.7832V157.232ZM61.9824 166.742H76.0977V163.35H79.4023V175.584H58.6426V163.35H61.9824V166.742ZM76.0977 172.877V169.379H61.9824V172.877H76.0977ZM95.2051 153.77C95.2051 156.031 94.8125 158.246 94.0273 160.414C93.2422 162.57 92.1641 164.492 90.793 166.18C89.4219 167.855 87.8691 169.115 86.1348 169.959L84.166 167.34C85.7246 166.59 87.1367 165.494 88.4023 164.053C89.668 162.6 90.6582 160.977 91.373 159.184C92.0996 157.379 92.4629 155.574 92.4629 153.77V149.094H95.2051V153.77ZM95.8379 153.77C95.8379 155.504 96.1895 157.227 96.8926 158.938C97.6074 160.648 98.5977 162.172 99.8633 163.508C101.141 164.844 102.576 165.857 104.17 166.549L102.324 169.168C100.543 168.371 98.9551 167.188 97.5605 165.617C96.1777 164.047 95.0996 162.236 94.3262 160.186C93.5645 158.135 93.1836 155.996 93.1836 153.77V149.094H95.8379V153.77ZM103.045 150.412H85.2734V147.67H103.045V150.412ZM110.357 175.971H107V144.471H110.357V175.971ZM132.91 146.176C134.48 146.176 135.893 146.486 137.146 147.107C138.4 147.729 139.385 148.596 140.1 149.709C140.826 150.822 141.189 152.076 141.189 153.471C141.189 154.865 140.832 156.125 140.117 157.25C139.402 158.363 138.412 159.23 137.146 159.852C135.893 160.461 134.48 160.777 132.91 160.801C131.34 160.777 129.922 160.461 128.656 159.852C127.402 159.23 126.418 158.363 125.703 157.25C124.988 156.125 124.631 154.865 124.631 153.471C124.631 152.076 124.988 150.822 125.703 149.709C126.43 148.596 127.42 147.729 128.674 147.107C129.928 146.486 131.34 146.176 132.91 146.176ZM132.91 148.953C131.973 148.953 131.117 149.146 130.344 149.533C129.57 149.92 128.967 150.453 128.533 151.133C128.1 151.812 127.883 152.592 127.883 153.471C127.883 154.35 128.1 155.135 128.533 155.826C128.967 156.518 129.57 157.062 130.344 157.461C131.117 157.859 131.973 158.059 132.91 158.059C133.871 158.059 134.727 157.859 135.477 157.461C136.238 157.062 136.836 156.518 137.27 155.826C137.715 155.135 137.938 154.35 137.938 153.471C137.938 152.592 137.715 151.812 137.27 151.133C136.836 150.453 136.238 149.92 135.477 149.533C134.727 149.146 133.871 148.953 132.91 148.953ZM148.906 160.168H145.584V144.471H148.906V160.168ZM153.494 154.156H147.518V151.396H153.494V154.156ZM128.92 172.438C130.221 172.438 131.521 172.361 132.822 172.209C134.135 172.045 135.383 171.77 136.566 171.383L137.059 174.02C135.746 174.465 134.434 174.758 133.121 174.898C131.82 175.051 130.42 175.127 128.92 175.127H127.338V172.438H128.92ZM130.572 173.387H127.338V163.455H130.572V173.387ZM151.859 166.074H135.969V163.561H151.859V166.074ZM143.896 167.041C145.068 167.041 146.1 167.223 146.99 167.586C147.893 167.949 148.596 168.471 149.1 169.15C149.615 169.818 149.873 170.604 149.873 171.506C149.873 172.396 149.615 173.17 149.1 173.826C148.596 174.494 147.893 175.01 146.99 175.373C146.1 175.748 145.068 175.936 143.896 175.936C142.725 175.936 141.688 175.754 140.785 175.391C139.883 175.027 139.186 174.512 138.693 173.844C138.213 173.176 137.973 172.396 137.973 171.506C137.973 170.604 138.219 169.818 138.711 169.15C139.203 168.471 139.895 167.949 140.785 167.586C141.688 167.223 142.725 167.041 143.896 167.041ZM143.896 169.414C143.334 169.414 142.83 169.496 142.385 169.66C141.939 169.824 141.582 170.07 141.312 170.398C141.055 170.727 140.926 171.096 140.926 171.506C140.926 171.916 141.055 172.285 141.312 172.613C141.582 172.93 141.939 173.17 142.385 173.334C142.83 173.51 143.334 173.598 143.896 173.598C144.482 173.598 144.998 173.51 145.443 173.334C145.889 173.17 146.234 172.93 146.48 172.613C146.727 172.285 146.85 171.916 146.85 171.506C146.85 171.096 146.727 170.727 146.48 170.398C146.234 170.07 145.889 169.824 145.443 169.66C144.998 169.496 144.482 169.414 143.896 169.414ZM145.584 165.494H142.314V160.941H145.584V165.494ZM182.34 175.971H179.176V144.471H182.34V175.971ZM173.357 159.834H165.676V157.145H173.357V159.834ZM175.695 174.459H172.531V145.279H175.695V174.459ZM168.928 148.408C168.928 151.326 168.529 154.051 167.732 156.582C166.947 159.102 165.676 161.434 163.918 163.578C162.16 165.723 159.881 167.615 157.08 169.256L155.164 166.865C157.602 165.424 159.6 163.801 161.158 161.996C162.717 160.18 163.865 158.199 164.604 156.055C165.342 153.898 165.711 151.561 165.711 149.041V148.408H168.928ZM166.889 151.133H156.641V148.408H166.889V151.133Z" fill="black"/>
</svg>
